<svg xmlns="http://www.w3.org/2000/svg" width="760" height="430" viewBox="0 0 760 430">
<rect width="100%" height="100%" fill="white" />
<text x="380" y="28" text-anchor="middle" font-size="18">Research A: Decoder comparison on wav2vec2 layer 9</text>
<line x1="80" y1="50" x2="80" y2="360" stroke="#333" />
<line x1="80" y1="360" x2="720" y2="360" stroke="#333" />
<rect x="120" y="90.4" width="60" height="269.6" fill="#1f77b4" />
<rect x="185" y="277.4" width="60" height="82.6" fill="#ff7f0e" />
<text x="150" y="84.4" text-anchor="middle" font-size="11">0.603</text>
<text x="215" y="271.4" text-anchor="middle" font-size="11">0.185</text>
<text x="180" y="395" text-anchor="middle" font-size="13">Linear</text>
<rect x="320" y="227.9" width="60" height="132.1" fill="#1f77b4" />
<rect x="385" y="325.7" width="60" height="34.3" fill="#ff7f0e" />
<text x="350" y="221.9" text-anchor="middle" font-size="11">0.295</text>
<text x="415" y="319.7" text-anchor="middle" font-size="11">0.077</text>
<text x="380" y="395" text-anchor="middle" font-size="13">MLP</text>
<rect x="520" y="218.5" width="60" height="141.5" fill="#1f77b4" />
<rect x="585" y="322.2" width="60" height="37.8" fill="#ff7f0e" />
<text x="550" y="212.5" text-anchor="middle" font-size="11">0.316</text>
<text x="615" y="316.2" text-anchor="middle" font-size="11">0.084</text>
<text x="580" y="395" text-anchor="middle" font-size="13">Transformer</text>
<rect x="590" y="48" width="125" height="54" fill="white" stroke="#ccc" />
<rect x="604" y="62" width="18" height="12" fill="#1f77b4" /><text x="630" y="72" font-size="12">WER</text>
<rect x="604" y="84" width="18" height="12" fill="#ff7f0e" /><text x="630" y="94" font-size="12">CER</text>
<text x="24" y="220" transform="rotate(-90 24 220)" text-anchor="middle" font-size="13">Error rate</text>
</svg>